<svg width="254" height="78" viewBox="0 0 254 78" fill="none" xmlns="http://www.w3.org/2000/svg">
<path d="M41.3692 26.0847L55.4865 48.7898C58.5928 53.7858 55.0001 60.25 49.1172 60.25H20.8828C14.9999 60.25 11.4072 53.7858 14.5135 48.7898L28.6308 26.0847C31.5653 21.3649 38.4347 21.3649 41.3692 26.0847Z" fill="#00C839" stroke="black" stroke-width="3"/>
<path d="M212.604 52.6823L198.357 29.4166C195.297 24.4191 198.893 18 204.753 18L233.247 18C239.107 18 242.703 24.4191 239.643 29.4166L225.396 52.6823C222.47 57.4601 215.53 57.4601 212.604 52.6823Z" fill="#F8D5E1" stroke="black" stroke-width="3"/>
<path d="M116.5 40C116.5 51.9054 107.067 61.5 95.5 61.5C83.9329 61.5 74.5 51.9054 74.5 40C74.5 28.0946 83.9329 18.5 95.5 18.5C107.067 18.5 116.5 28.0946 116.5 40Z" fill="#F8EA8C" stroke="black" stroke-width="3"/>
<path d="M163.158 20.2621L165.47 26.5085C166.33 28.8351 168.165 30.6695 170.491 31.5304L176.738 33.8418C181.526 35.6137 181.526 42.3863 176.738 44.1582L170.491 46.4696C168.165 47.3305 166.33 49.1649 165.47 51.4915L163.158 57.7379C161.386 62.5263 154.614 62.5263 152.842 57.7379L150.53 51.4915C149.67 49.1649 147.835 47.3305 145.509 46.4696L139.262 44.1582C134.474 42.3863 134.474 35.6137 139.262 33.8418L145.509 31.5304C147.835 30.6695 149.67 28.8351 150.53 26.5085L152.842 20.2621C154.614 15.4737 161.386 15.4737 163.158 20.2621Z" fill="#FD6153" stroke="black" stroke-width="3"/>
</svg>
